<svg width="208" height="196" viewBox="0 0 208 196" fill="none" xmlns="http://www.w3.org/2000/svg">
<mask id="mask0_710_462" style="mask-type:alpha" maskUnits="userSpaceOnUse" x="0" y="-6" width="208" height="209">
<path d="M169.052 -2.99985C171.993 -2.99978 175.217 -1.84037 177.227 0.848785L202.414 34.5627C204.093 36.8094 205 39.5384 205 42.3429V199H3V42.3429C3 39.5384 3.90741 36.8094 5.58594 34.5627L30.7734 0.848785C32.7826 -1.84038 36.0068 -2.99985 38.9482 -2.99985C41.8897 -2.99984 45.1139 -1.84038 47.123 0.848785L71.0537 32.8791C71.4567 33.4185 72.2668 33.4137 72.6631 32.8693L95.7627 1.13687C97.7648 -1.61349 101.03 -2.79575 104 -2.79575C106.97 -2.79571 110.234 -1.61325 112.236 1.13687L135.337 32.8693L135.415 32.965C135.832 33.4124 136.568 33.3849 136.946 32.8791L160.876 0.848785C162.885 -1.84045 166.11 -2.99985 169.052 -2.99985Z" fill="url(#paint0_linear_710_462)" stroke="#DBF4A7" stroke-width="6"/>
</mask>
<g mask="url(#mask0_710_462)">
<g opacity="0.5" filter="url(#filter0_f_710_462)">
<path d="M101.57 48.7196C60.868 48.7196 26.7559 58.7986 23.2671 72.1532C19.7784 86.2638 51.9524 98.4845 95.3679 99.6184C97.3061 99.6184 99.6319 99.6184 101.57 99.6184C142.272 99.6184 176.384 89.5394 179.873 76.0588C183.362 61.9483 151.188 49.7275 107.772 48.5936C105.834 48.5936 103.508 48.5936 101.57 48.5936" fill="#1D0D44"/>
</g>
<path d="M107.378 84.4857C107.378 87.5921 106.767 90.6681 105.578 93.5381C104.389 96.4081 102.647 99.0158 100.45 101.212C98.2534 103.409 95.6457 105.151 92.7757 106.34C89.9058 107.529 86.8297 108.141 83.7233 108.141C80.6168 108.141 77.5408 107.529 74.6708 106.34C71.8009 105.151 69.1931 103.409 66.9966 101.212C64.8 99.0158 63.0575 96.4081 61.8688 93.5381C60.68 90.6681 60.0681 87.5921 60.0681 84.4857L83.7233 84.4857H107.378Z" fill="white"/>
<path d="M97.2409 84.4864C97.2409 86.2615 96.8913 88.0192 96.212 89.6592C95.5327 91.2992 94.537 92.7893 93.2818 94.0445C92.0266 95.2997 90.5365 96.2954 88.8965 96.9747C87.2565 97.654 85.4988 98.0036 83.7237 98.0036C81.9486 98.0036 80.1908 97.654 78.5508 96.9747C76.9109 96.2954 75.4207 95.2997 74.1655 94.0445C72.9103 92.7893 71.9147 91.2992 71.2354 89.6592C70.5561 88.0192 70.2064 86.2615 70.2064 84.4864L83.7237 84.4864H97.2409Z" fill="#200C47"/>
<path d="M147.931 84.4857C147.931 87.5921 147.319 90.6681 146.13 93.5381C144.941 96.4081 143.199 99.0158 141.002 101.212C138.806 103.409 136.198 105.151 133.328 106.34C130.458 107.529 127.382 108.141 124.276 108.141C121.169 108.141 118.093 107.529 115.223 106.34C112.353 105.151 109.746 103.409 107.549 101.212C105.352 99.0158 103.61 96.4081 102.421 93.5381C101.232 90.6681 100.62 87.5921 100.62 84.4857L124.276 84.4857H147.931Z" fill="white"/>
<path d="M137.793 84.4864C137.793 86.2615 137.444 88.0192 136.764 89.6592C136.085 91.2992 135.089 92.7893 133.834 94.0445C132.579 95.2997 131.089 96.2954 129.449 96.9747C127.809 97.654 126.051 98.0036 124.276 98.0036C122.501 98.0036 120.743 97.654 119.103 96.9747C117.463 96.2954 115.973 95.2997 114.718 94.0445C113.463 92.7893 112.467 91.2992 111.788 89.6592C111.108 88.0192 110.759 86.2615 110.759 84.4864L124.276 84.4864H137.793Z" fill="#200C47"/>
</g>
<defs>
<filter id="filter0_f_710_462" x="-5.68741" y="19.898" width="214.515" height="108.416" filterUnits="userSpaceOnUse" color-interpolation-filters="sRGB">
<feFlood flood-opacity="0" result="BackgroundImageFix"/>
<feBlend mode="normal" in="SourceGraphic" in2="BackgroundImageFix" result="shape"/>
<feGaussianBlur stdDeviation="14.3478" result="effect1_foregroundBlur_710_462"/>
</filter>
<linearGradient id="paint0_linear_710_462" x1="6" y1="0.000152588" x2="272.966" y2="266.121" gradientUnits="userSpaceOnUse">
<stop offset="0.0486371" stop-color="#DBF4A7"/>
<stop offset="1" stop-color="#1D0D44"/>
</linearGradient>
</defs>
</svg>
