<svg width="223" height="107" viewBox="0 0 223 107" fill="none" xmlns="http://www.w3.org/2000/svg">
<g filter="url(#filter0_f_710_999)">
<path d="M111.159 33.1012C70.2299 33.1012 35.9275 41.2 32.4193 51.9309C28.9111 63.2691 61.2645 73.0889 104.922 74C106.871 74 109.21 74 111.159 74C152.088 74 186.39 65.9012 189.899 55.0691C193.407 43.7309 161.053 33.9111 117.396 33C115.447 33 113.108 33 111.159 33" fill="#FE592F"/>
</g>
<path d="M89.0165 0.133199C75.0422 0.133199 63.3304 10.7891 62.1326 24.9082C60.9348 39.8266 71.9812 52.7469 86.8871 53.9457C87.5526 53.9457 88.3511 53.9457 89.0165 53.9457C102.991 53.9457 114.703 43.2897 115.9 29.0374C117.098 14.1191 106.052 1.19879 91.1459 0C90.4805 0 89.682 0 89.0165 0" fill="white"/>
<path d="M92.0078 7.44022C94.1149 7.58203 96.0213 8.52656 97.376 10.0379C98.7308 11.5495 99.3839 13.4865 99.2334 15.4705C98.9323 19.2967 95.4699 22.3199 91.3555 22.3201C91.3555 22.3201 90.904 22.3201 90.7031 22.3201C88.5958 22.1784 86.6888 21.2339 85.334 19.7224C84.9571 19.3019 84.6361 18.8471 84.3701 18.3689C85.9329 18.0026 87.1373 16.7228 87.2598 15.1678C87.3324 14.2099 87.0172 13.2745 86.3633 12.5447C85.847 11.9687 85.1643 11.5636 84.3994 11.3846C85.7413 9.03984 88.3626 7.44022 91.3555 7.44022H92.0078Z" fill="#200C47"/>
<path d="M135.522 0.133199C149.496 0.133199 161.208 10.7891 162.405 24.9082C163.603 39.8266 152.557 52.7469 137.651 53.9457C136.986 53.9457 136.187 53.9457 135.522 53.9457C121.547 53.9457 109.835 43.2897 108.638 29.0374C107.44 14.1191 118.486 1.19879 133.392 0C134.058 0 134.856 0 135.522 0" fill="white"/>
<path d="M130.676 22.3236C128.569 22.1818 126.662 21.2368 125.308 19.725C123.953 18.2131 123.301 16.2757 123.451 14.2914C123.753 10.4646 127.214 7.44086 131.328 7.4408C131.328 7.4408 131.78 7.4408 131.981 7.4408C134.088 7.58253 135.994 8.52762 137.349 10.0394C137.726 10.4601 138.047 10.9146 138.313 11.3929C136.75 11.7592 135.547 13.0397 135.424 14.5951C135.351 15.5532 135.666 16.4891 136.32 17.2191C136.836 17.795 137.518 18.1992 138.282 18.3783C136.941 20.7232 134.321 22.3236 131.328 22.3236L130.676 22.3236Z" fill="#200C47"/>
<defs>
<filter id="filter0_f_710_999" x="1.52588e-05" y="0.84108" width="222.318" height="105.318" filterUnits="userSpaceOnUse" color-interpolation-filters="sRGB">
<feFlood flood-opacity="0" result="BackgroundImageFix"/>
<feBlend mode="normal" in="SourceGraphic" in2="BackgroundImageFix" result="shape"/>
<feGaussianBlur stdDeviation="16.0795" result="effect1_foregroundBlur_710_999"/>
</filter>
</defs>
</svg>
