<svg width="195" height="115" viewBox="0 0 195 115" fill="none" xmlns="http://www.w3.org/2000/svg">
<g filter="url(#filter0_f_710_636)">
<path d="M97.4856 28.8362C61.8463 28.8362 31.9772 40.0814 28.9224 54.9813C25.8676 70.7246 54.0396 84.3595 92.0548 85.6245C93.7519 85.6245 95.7884 85.6245 97.4856 85.6245C133.125 85.6245 162.994 74.3793 166.049 59.3389C169.104 43.5956 140.932 29.9607 102.916 28.6956C101.219 28.6956 99.1827 28.6956 97.4856 28.6956" fill="#1D0D44"/>
</g>
<path d="M124.182 17.758C110.242 17.758 98.5597 28.3785 97.3649 42.4507C96.1701 57.3193 107.189 70.1967 122.058 71.3915C122.722 71.3915 123.518 71.3915 124.182 71.3915C138.121 71.3915 149.804 60.771 150.999 46.5661C152.194 31.6974 141.175 18.8201 126.306 17.6253C125.642 17.6253 124.846 17.6253 124.182 17.6253" fill="white"/>
<path d="M71.4152 17.758C57.4757 17.758 45.793 28.3785 44.5982 42.4507C43.4034 57.3193 54.4222 70.1967 69.2911 71.3915C69.9549 71.3915 70.7514 71.3915 71.4152 71.3915C85.3547 71.3915 97.0374 60.771 98.2322 46.5661C99.427 31.6974 88.4082 18.8201 73.5393 17.6253C72.8755 17.6253 72.079 17.6253 71.4152 17.6253" fill="white"/>
<path d="M47.672 50.8341L72.974 65.1593L72.974 77.6239C72.974 82.0422 69.3923 85.6239 64.974 85.6239L55.672 85.6239C51.2537 85.6239 47.672 82.0422 47.672 77.6239L47.672 50.8341Z" fill="white"/>
<path d="M82.3895 41.3465C82.3895 41.3465 82.0278 41.3465 81.8671 41.3465C80.1795 41.226 78.6526 40.4228 77.5677 39.1376C76.4828 37.8525 75.9604 36.2058 76.081 34.5191C76.3623 31.266 79.0946 28.6956 82.3895 28.6956C82.5502 28.6956 82.7511 28.6956 82.9118 28.6956C84.5995 28.8161 86.1263 29.6194 87.2112 30.9045C88.2961 32.1897 88.8185 33.8363 88.698 35.5231C88.4569 38.7762 85.6844 41.3465 82.3895 41.3465Z" fill="#200C47"/>
<path d="M133.066 41.7449C133.066 41.7449 132.705 41.7449 132.544 41.7449C130.856 41.6244 129.329 40.8212 128.244 39.536C127.16 38.2509 126.637 36.6043 126.758 34.9175C127.039 31.6644 129.771 29.0941 133.066 29.0941C133.227 29.0941 133.428 29.0941 133.589 29.0941C135.276 29.2145 136.803 30.0178 137.888 31.3029C138.973 32.5881 139.495 34.2347 139.375 35.9215C139.134 39.1746 136.361 41.7449 133.066 41.7449Z" fill="#200C47"/>
<defs>
<filter id="filter0_f_710_636" x="2.67029e-05" y="-3.8147e-06" width="194.971" height="114.32" filterUnits="userSpaceOnUse" color-interpolation-filters="sRGB">
<feFlood flood-opacity="0" result="BackgroundImageFix"/>
<feBlend mode="normal" in="SourceGraphic" in2="BackgroundImageFix" result="shape"/>
<feGaussianBlur stdDeviation="14.3478" result="effect1_foregroundBlur_710_636"/>
</filter>
</defs>
</svg>
