<svg width="219" height="108" viewBox="0 0 219 108" fill="none" xmlns="http://www.w3.org/2000/svg">
<g filter="url(#filter0_f_710_546)">
<path d="M109.171 28.819C67.4776 28.819 32.5346 38.6856 28.9609 51.7589C25.3872 65.5721 58.3448 77.5354 102.818 78.6454C104.803 78.6454 107.186 78.6454 109.171 78.6454C150.864 78.6454 185.807 68.7788 189.381 55.5822C192.955 41.7689 159.997 29.8056 115.524 28.6956C113.539 28.6956 111.156 28.6956 109.171 28.6956" fill="#A079FF"/>
</g>
<path d="M83.8683 4.64687C98.6834 4.64687 110.693 16.6571 110.693 31.4721C110.693 46.2869 98.6833 58.2963 83.8683 58.2963C69.0534 58.2961 57.0433 46.2868 57.0431 31.4721C57.0431 27.8855 57.7484 24.4635 59.0255 21.3363C67.101 17.724 74.9989 12.4112 80.34 4.87831C81.4946 4.72658 82.6722 4.64688 83.8683 4.64687Z" fill="white"/>
<path d="M82.6554 28.9491C83.7142 27.8903 85.2595 27.7192 86.1066 28.5663C86.9532 29.4134 86.7814 30.9578 85.7228 32.0164C84.6639 33.0753 83.1187 33.2473 82.2716 32.4002C81.4247 31.5531 81.5966 30.0078 82.6554 28.9491ZM74.9708 12.0467C79.7623 12.0468 82.5625 14.8461 82.5626 19.6375C82.5626 24.4292 78.6776 28.3143 73.8859 28.3143C69.0943 28.3142 66.2941 25.5141 66.2941 20.7225C66.2941 19.0923 66.7445 17.5674 67.5265 16.2645C69.3462 15.1484 71.0774 13.8557 72.631 12.367C73.3754 12.159 74.16 12.0467 74.9708 12.0467Z" fill="#200C47"/>
<path d="M131.971 4.64682C132.821 4.64682 133.663 4.68753 134.493 4.76498C140.08 12.7067 148.506 18.1923 157.007 21.8255C158.161 24.8192 158.796 28.0715 158.796 31.472C158.796 46.2868 146.786 58.2962 131.971 58.2962C117.156 58.2962 105.146 46.2868 105.146 31.472C105.146 16.6571 117.156 4.64682 131.971 4.64682Z" fill="white"/>
<path d="M132.606 28.949C133.665 27.8903 135.211 27.7184 136.058 28.5652C136.905 29.4123 136.733 30.9576 135.674 32.0164C134.615 33.075 133.071 33.2469 132.224 32.4002C131.377 31.5532 131.548 30.0078 132.606 28.949ZM124.922 12.0457C129.714 12.0457 132.514 14.846 132.514 19.6375C132.514 24.4292 128.629 28.3143 123.837 28.3143C119.046 28.3141 116.246 25.5139 116.246 20.7225C116.246 15.9308 120.13 12.0457 124.922 12.0457Z" fill="#200C47"/>
<defs>
<filter id="filter0_f_710_546" x="2.67029e-05" y="-3.8147e-06" width="218.342" height="107.341" filterUnits="userSpaceOnUse" color-interpolation-filters="sRGB">
<feFlood flood-opacity="0" result="BackgroundImageFix"/>
<feBlend mode="normal" in="SourceGraphic" in2="BackgroundImageFix" result="shape"/>
<feGaussianBlur stdDeviation="14.3478" result="effect1_foregroundBlur_710_546"/>
</filter>
</defs>
</svg>
