<svg width="219" height="108" viewBox="0 0 219 108" fill="none" xmlns="http://www.w3.org/2000/svg">
<g filter="url(#filter0_f_767_2161)">
<path d="M109.171 28.8191C67.4776 28.8191 32.5346 38.6858 28.9609 51.759C25.3872 65.5723 58.3448 77.5356 102.818 78.6456C104.803 78.6456 107.186 78.6456 109.171 78.6456C150.864 78.6456 185.807 68.7789 189.381 55.5823C192.955 41.7691 159.997 29.8058 115.524 28.6958C113.539 28.6958 111.156 28.6958 109.171 28.6958" fill="#DCEBFF"/>
</g>
<path d="M83.8683 4.64697C98.6834 4.64697 110.693 16.6572 110.693 31.4722C110.693 46.287 98.6833 58.2964 83.8683 58.2964C69.0534 58.2962 57.0433 46.2869 57.0431 31.4722C57.0431 27.8856 57.7484 24.4636 59.0255 21.3364C67.101 17.7241 74.9989 12.4113 80.34 4.87842C81.4946 4.72669 82.6722 4.64699 83.8683 4.64697Z" fill="white"/>
<path d="M82.6554 28.9492C83.7142 27.8905 85.2595 27.7194 86.1066 28.5664C86.9532 29.4135 86.7814 30.9579 85.7228 32.0166C84.6639 33.0754 83.1187 33.2474 82.2716 32.4004C81.4247 31.5533 81.5966 30.008 82.6554 28.9492ZM74.9708 12.0469C79.7623 12.047 82.5625 14.8463 82.5626 19.6377C82.5626 24.4294 78.6776 28.3145 73.8859 28.3145C69.0943 28.3144 66.2941 25.5142 66.2941 20.7227C66.2941 19.0925 66.7445 17.5676 67.5265 16.2646C69.3462 15.1486 71.0774 13.8559 72.631 12.3672C73.3754 12.1592 74.16 12.0469 74.9708 12.0469Z" fill="#200C47"/>
<path d="M131.971 4.64697C132.821 4.64698 133.663 4.68768 134.493 4.76514C140.08 12.7068 148.506 18.1925 157.007 21.8257C158.161 24.8193 158.796 28.0716 158.796 31.4722C158.796 46.287 146.786 58.2963 131.971 58.2964C117.156 58.2964 105.146 46.287 105.146 31.4722C105.146 16.6572 117.156 4.64697 131.971 4.64697Z" fill="white"/>
<path d="M132.606 28.9492C133.665 27.8905 135.21 27.7186 136.058 28.5654C136.905 29.4125 136.733 30.9578 135.674 32.0166C134.615 33.0752 133.071 33.2471 132.224 32.4004C131.377 31.5533 131.548 30.008 132.606 28.9492ZM124.922 12.0459C129.714 12.0459 132.514 14.8462 132.514 19.6377C132.514 24.4294 128.629 28.3145 123.837 28.3145C119.046 28.3143 116.246 25.5141 116.246 20.7227C116.246 15.931 120.13 12.0459 124.922 12.0459Z" fill="#200C47"/>
<defs>
<filter id="filter0_f_767_2161" x="2.67029e-05" y="0.000148773" width="218.342" height="107.341" filterUnits="userSpaceOnUse" color-interpolation-filters="sRGB">
<feFlood flood-opacity="0" result="BackgroundImageFix"/>
<feBlend mode="normal" in="SourceGraphic" in2="BackgroundImageFix" result="shape"/>
<feGaussianBlur stdDeviation="14.3478" result="effect1_foregroundBlur_767_2161"/>
</filter>
</defs>
</svg>
