<svg width="215" height="107" viewBox="0 0 215 107" fill="none" xmlns="http://www.w3.org/2000/svg">
<g filter="url(#filter0_f_710_821)">
<path d="M107.196 28.8166C66.5257 28.8166 32.4404 38.4956 28.9544 51.3203C25.4684 64.871 57.617 76.6068 100.998 77.6956C102.935 77.6956 105.259 77.6956 107.196 77.6956C147.866 77.6956 181.951 68.0166 185.437 55.071C188.923 41.5203 156.774 29.7845 113.393 28.6956C111.456 28.6956 109.132 28.6956 107.196 28.6956" fill="#E7ADCA"/>
</g>
<path d="M134.604 7.4135C120.924 7.4135 109.459 18.1059 108.286 32.2733C107.114 47.2426 117.927 60.2072 132.519 61.4101C133.171 61.4101 133.952 61.4101 134.604 61.4101C148.283 61.4101 159.748 50.7177 160.921 36.4166C162.094 21.4473 151.28 8.48274 136.688 7.27985C136.037 7.27985 135.255 7.27985 134.604 7.27985" fill="white"/>
<path d="M82.8212 7.4135C69.1414 7.4135 57.6764 18.1059 56.5039 32.2733C55.3313 47.2426 66.1449 60.2072 80.7367 61.4101C81.3881 61.4101 82.1698 61.4101 82.8212 61.4101C96.501 61.4101 107.966 50.7177 109.139 36.4166C110.311 21.4473 99.4975 8.48274 84.9057 7.27985C84.2543 7.27985 83.4726 7.27985 82.8212 7.27985" fill="white"/>
<path d="M83.4859 39.3174C83.4859 39.3174 83.2183 39.3174 83.0994 39.3174C81.851 39.2283 80.7215 38.6341 79.9189 37.6834C79.1164 36.7327 78.7299 35.5146 78.8191 34.2667C79.0272 31.8602 81.0484 29.9588 83.4859 29.9588C83.6048 29.9588 83.7534 29.9588 83.8723 29.9588C85.1207 30.0479 86.2502 30.6421 87.0528 31.5928C87.8554 32.5435 88.2418 33.7617 88.1526 35.0095C87.9743 37.416 85.9233 39.3174 83.4859 39.3174Z" fill="#200C47"/>
<path d="M133.635 39.7195C133.635 39.7195 133.368 39.7195 133.249 39.7195C132 39.6303 130.871 39.0361 130.068 38.0854C129.266 37.1347 128.879 35.9166 128.969 34.6687C129.177 32.2622 131.198 30.3608 133.635 30.3608C133.754 30.3608 133.903 30.3608 134.022 30.3608C135.27 30.4499 136.4 31.0441 137.202 31.9948C138.005 32.9456 138.391 34.1637 138.302 35.4115C138.124 37.818 136.073 39.7195 133.635 39.7195Z" fill="#200C47"/>
<defs>
<filter id="filter0_f_710_821" x="2.67029e-05" y="-3.8147e-06" width="214.391" height="106.391" filterUnits="userSpaceOnUse" color-interpolation-filters="sRGB">
<feFlood flood-opacity="0" result="BackgroundImageFix"/>
<feBlend mode="normal" in="SourceGraphic" in2="BackgroundImageFix" result="shape"/>
<feGaussianBlur stdDeviation="14.3478" result="effect1_foregroundBlur_710_821"/>
</filter>
</defs>
</svg>
