<svg width="215" height="109" viewBox="0 0 215 109" fill="none" xmlns="http://www.w3.org/2000/svg">
<g opacity="0.5" filter="url(#filter0_f_767_2178)">
<path d="M107.258 28.8218C66.5555 28.8218 32.4433 38.9008 28.9546 52.2554C25.4658 66.366 57.6398 78.5867 101.055 79.7206C102.994 79.7206 105.319 79.7206 107.258 79.7206C147.96 79.7206 182.072 69.6416 185.561 56.161C189.049 42.0504 156.875 29.8297 113.46 28.6958C111.522 28.6958 109.196 28.6958 107.258 28.6958" fill="black"/>
</g>
<path d="M113.066 64.5878C113.066 67.6943 112.454 70.7703 111.265 73.6403C110.076 76.5103 108.334 79.118 106.137 81.3146C103.941 83.5112 101.333 85.2536 98.4631 86.4424C95.5931 87.6312 92.5171 88.243 89.4107 88.243C86.3042 88.243 83.2282 87.6312 80.3582 86.4424C77.4882 85.2536 74.8805 83.5112 72.6839 81.3146C70.4873 79.118 68.7449 76.5103 67.5561 73.6403C66.3674 70.7703 65.7555 67.6943 65.7555 64.5878L89.4107 64.5878H113.066Z" fill="white"/>
<path d="M102.928 64.5886C102.928 66.3637 102.579 68.1214 101.899 69.7614C101.22 71.4014 100.224 72.8915 98.9692 74.1467C97.714 75.4019 96.2239 76.3976 94.5839 77.0769C92.9439 77.7562 91.1862 78.1058 89.411 78.1058C87.6359 78.1058 85.8782 77.7562 84.2382 77.0769C82.5982 76.3976 81.1081 75.4019 79.8529 74.1467C78.5977 72.8915 77.602 71.4014 76.9227 69.7614C76.2434 68.1214 75.8938 66.3637 75.8938 64.5886L89.411 64.5886H102.928Z" fill="#200C47"/>
<path d="M153.618 64.5878C153.618 67.6943 153.006 70.7703 151.818 73.6403C150.629 76.5103 148.886 79.118 146.69 81.3146C144.493 83.5112 141.885 85.2536 139.015 86.4424C136.146 87.6312 133.069 88.243 129.963 88.243C126.857 88.243 123.781 87.6312 120.911 86.4424C118.041 85.2536 115.433 83.5112 113.236 81.3146C111.04 79.118 109.297 76.5103 108.109 73.6403C106.92 70.7703 106.308 67.6943 106.308 64.5878L129.963 64.5878H153.618Z" fill="white"/>
<path d="M143.481 64.5886C143.481 66.3637 143.131 68.1214 142.452 69.7614C141.772 71.4014 140.777 72.8915 139.522 74.1467C138.266 75.4019 136.776 76.3976 135.136 77.0769C133.496 77.7562 131.739 78.1058 129.963 78.1058C128.188 78.1058 126.431 77.7562 124.791 77.0769C123.151 76.3976 121.66 75.4019 120.405 74.1467C119.15 72.8915 118.154 71.4014 117.475 69.7614C116.796 68.1214 116.446 66.3637 116.446 64.5886L129.963 64.5886H143.481Z" fill="#200C47"/>
<defs>
<filter id="filter0_f_767_2178" x="2.67029e-05" y="0.000148773" width="214.515" height="108.416" filterUnits="userSpaceOnUse" color-interpolation-filters="sRGB">
<feFlood flood-opacity="0" result="BackgroundImageFix"/>
<feBlend mode="normal" in="SourceGraphic" in2="BackgroundImageFix" result="shape"/>
<feGaussianBlur stdDeviation="14.3478" result="effect1_foregroundBlur_767_2178"/>
</filter>
</defs>
</svg>
