<svg width="99" height="68" viewBox="0 0 99 68" fill="none" xmlns="http://www.w3.org/2000/svg">
<path d="M26.4394 0.130564C12.7415 0.130564 1.26136 10.5757 0.0872527 24.4156C-1.08686 39.0388 9.74103 51.7036 24.3521 52.8787C25.0044 52.8787 25.7872 52.8787 26.4394 52.8787C40.1374 52.8787 51.6175 42.4335 52.7917 28.4631C53.9658 13.8398 43.1379 1.17508 28.5267 0C27.8745 0 27.0917 0 26.4394 0" fill="white"/>
<path d="M19.1451 25.528C19.1451 25.528 18.7802 25.528 18.6181 25.528C16.9154 25.4064 15.3749 24.596 14.2803 23.2994C13.1858 22.0027 12.6587 20.3414 12.7804 18.6396C13.0641 15.3574 15.8208 12.7642 19.1451 12.7642C19.3073 12.7642 19.5099 12.7642 19.6721 12.7642C21.3748 12.8857 22.9153 13.6961 24.0099 14.9928C25.1044 16.2894 25.6314 17.9507 25.5098 19.6526C25.2666 22.9347 22.4693 25.528 19.1451 25.528Z" fill="#200C47"/>
<path d="M72.0238 14.7164C85.7217 14.7164 97.2019 25.1616 98.376 39.0015C99.5501 53.6247 88.7222 66.2895 74.1111 67.4645C73.4588 67.4645 72.6761 67.4645 72.0238 67.4645C58.3259 67.4645 46.8457 57.0194 45.6716 43.049C44.4975 28.4257 55.3254 15.761 69.9365 14.5859C70.5888 14.5859 71.3715 14.5859 72.0238 14.5859" fill="white"/>
<path d="M62.9073 40.1138C62.9073 40.1138 62.5424 40.1138 62.3803 40.1138C60.6776 39.9922 59.1371 39.1818 58.0425 37.8852C56.948 36.5885 56.4209 34.9272 56.5426 33.2254C56.8263 29.9433 59.583 27.35 62.9073 27.35C63.0695 27.35 63.2722 27.35 63.4343 27.35C65.137 27.4715 66.6775 28.2819 67.7721 29.5786C68.8666 30.8752 69.3937 32.5365 69.272 34.2384C69.0288 37.5205 66.2316 40.1138 62.9073 40.1138Z" fill="#200C47"/>
</svg>
