<svg width="223" height="107" viewBox="0 0 223 107" fill="none" xmlns="http://www.w3.org/2000/svg">
<g filter="url(#filter0_f_767_1595)">
<path d="M111.159 33.1012C70.2299 33.1012 35.9275 41.2 32.4193 51.9309C28.9111 63.2691 61.2645 73.0889 104.922 74C106.871 74 109.21 74 111.159 74C152.088 74 186.39 65.9012 189.899 55.0691C193.407 43.7309 161.053 33.9111 117.396 33C115.447 33 113.108 33 111.159 33" fill="#ECCDDC"/>
</g>
<path d="M89.0165 0.133199C75.0422 0.133199 63.3304 10.7891 62.1326 24.9082C60.9348 39.8266 71.9812 52.7469 86.8871 53.9457C87.5526 53.9457 88.3511 53.9457 89.0165 53.9457C102.991 53.9457 114.703 43.2897 115.9 29.0374C117.098 14.1191 106.052 1.19879 91.1459 0C90.4805 0 89.682 0 89.0165 0" fill="white"/>
<path d="M92.0078 7.44043C94.1149 7.58224 96.0213 8.52678 97.376 10.0381C98.7308 11.5497 99.3839 13.4867 99.2334 15.4707C98.9323 19.2969 95.4699 22.3201 91.3555 22.3203C91.3555 22.3203 90.904 22.3203 90.7031 22.3203C88.5958 22.1786 86.6888 21.2341 85.334 19.7227C84.9571 19.3021 84.6361 18.8473 84.3701 18.3691C85.9329 18.0029 87.1373 16.723 87.2598 15.168C87.3324 14.2101 87.0172 13.2748 86.3633 12.5449C85.847 11.9689 85.1643 11.5638 84.3994 11.3848C85.7413 9.04006 88.3626 7.44043 91.3555 7.44043H92.0078Z" fill="#200C47"/>
<path d="M135.522 0.133199C149.496 0.133199 161.208 10.7891 162.405 24.9082C163.603 39.8266 152.557 52.7469 137.651 53.9457C136.986 53.9457 136.187 53.9457 135.522 53.9457C121.547 53.9457 109.835 43.2897 108.638 29.0374C107.44 14.1191 118.486 1.19879 133.392 0C134.058 0 134.856 0 135.522 0" fill="white"/>
<path d="M130.676 22.3237C128.569 22.1819 126.662 21.2369 125.308 19.7251C123.953 18.2132 123.301 16.2758 123.451 14.2915C123.753 10.4647 127.214 7.44098 131.328 7.44092C131.328 7.44092 131.78 7.44092 131.981 7.44092C134.088 7.58265 135.994 8.52774 137.349 10.0396C137.726 10.4602 138.047 10.9147 138.313 11.3931C136.75 11.7593 135.547 13.0398 135.424 14.5952C135.351 15.5533 135.666 16.4892 136.32 17.2192C136.836 17.7951 137.518 18.1993 138.282 18.3784C136.941 20.7233 134.321 22.3237 131.328 22.3237L130.676 22.3237Z" fill="#200C47"/>
<path d="M123.881 60.1532C121.277 61.0934 118.19 61.8813 111.465 61.9424C104.74 62.0034 100.625 60.1455 99.2546 58.2627" stroke="black" stroke-width="4"/>
<defs>
<filter id="filter0_f_767_1595" x="1.52588e-05" y="0.84108" width="222.318" height="105.318" filterUnits="userSpaceOnUse" color-interpolation-filters="sRGB">
<feFlood flood-opacity="0" result="BackgroundImageFix"/>
<feBlend mode="normal" in="SourceGraphic" in2="BackgroundImageFix" result="shape"/>
<feGaussianBlur stdDeviation="16.0795" result="effect1_foregroundBlur_767_1595"/>
</filter>
</defs>
</svg>
