<svg width="213" height="162" viewBox="0 0 213 162" fill="none" xmlns="http://www.w3.org/2000/svg">
<g filter="url(#filter0_f_710_385)">
<path d="M140.852 132.094C163.055 132.094 181.663 111.619 183.566 84.4897C185.47 55.8249 167.918 30.9991 144.235 28.6957C143.178 28.6957 141.909 28.6957 140.852 28.6957C118.648 28.6957 100.04 49.1705 98.1367 76.5557C96.2336 105.221 113.785 130.046 137.468 132.35C138.526 132.35 139.794 132.35 140.852 132.35" fill="#FDD08E"/>
</g>
<g filter="url(#filter1_f_710_385)">
<path d="M74.2872 132.094C97.9077 132.094 117.704 111.619 119.729 84.4897C121.753 55.8249 103.082 30.9991 77.8865 28.6957C76.7617 28.6957 75.412 28.6957 74.2872 28.6957C50.6667 28.6957 30.8705 49.1705 28.8459 76.5557C26.8213 105.221 45.4927 130.046 70.6879 132.35C71.8127 132.35 73.1624 132.35 74.2872 132.35" fill="#FDD08E"/>
</g>
<path d="M83.08 58.7107C69.5872 58.7107 58.2789 68.991 57.1224 82.6124C55.9658 97.0048 66.6316 109.47 81.024 110.626C81.6665 110.626 82.4375 110.626 83.08 110.626C96.5729 110.626 107.881 100.346 109.038 86.596C110.194 72.2036 99.5285 59.7388 85.1361 58.5822C84.4936 58.5822 83.7226 58.5822 83.08 58.5822" fill="white"/>
<path d="M84.3171 91.4098C84.3171 91.4098 83.9522 91.4098 83.79 91.4098C82.0871 91.2882 80.5464 90.4777 79.4516 89.1809C78.3569 87.8841 77.8298 86.2225 77.9514 84.5204C78.2353 81.2378 80.9924 78.6442 84.3171 78.6442C84.4793 78.6442 84.682 78.6442 84.8442 78.6442C86.5471 78.7658 88.0878 79.5763 89.1825 80.8731C90.2773 82.1699 90.8044 83.8315 90.6827 85.5336C90.4395 88.8162 87.6418 91.4098 84.3171 91.4098Z" fill="#200C47"/>
<path d="M132.319 58.7107C118.826 58.7107 107.518 68.991 106.361 82.6124C105.204 97.0048 115.87 109.47 130.263 110.626C130.905 110.626 131.676 110.626 132.319 110.626C145.812 110.626 157.12 100.346 158.276 86.596C159.433 72.2036 148.767 59.7388 134.375 58.5822C133.732 58.5822 132.961 58.5822 132.319 58.5822" fill="white"/>
<path d="M134.702 85.9177C134.837 86.0053 134.97 86.1017 135.099 86.2069C135.222 86.3294 135.34 86.4602 135.453 86.5995C135.554 86.7547 135.649 86.9174 135.738 87.0876C135.811 87.2715 135.876 87.4617 135.932 87.658C135.97 87.8651 135.998 88.0767 136.017 88.2928C136.014 88.5159 136 88.7415 135.975 88.9696C135.926 89.2004 135.866 89.4314 135.795 89.6626C135.699 89.8918 135.59 90.1188 135.47 90.3435C135.326 90.5612 135.169 90.7741 135.001 90.9823C134.809 91.1784 134.607 91.3672 134.393 91.5487C134.157 91.7133 133.912 91.8681 133.657 92.0134C133.383 92.1371 133.101 92.249 132.811 92.349C132.506 92.4236 132.196 92.4845 131.879 92.5318C131.552 92.5503 131.222 92.5538 130.888 92.5422C130.551 92.4995 130.212 92.4409 129.873 92.3662C129.535 92.2592 129.199 92.1358 128.866 91.9962C128.541 91.8239 128.222 91.6355 127.908 91.4311C127.608 91.1951 127.316 90.9439 127.034 90.6774C126.771 90.3817 126.521 90.0722 126.282 89.7489C126.069 89.3998 125.871 89.039 125.687 88.6664C125.534 88.2728 125.398 87.8699 125.279 87.4579C125.195 87.0304 125.131 86.5968 125.085 86.1571C125.078 85.7084 125.091 85.257 125.124 84.8029C125.198 84.3471 125.294 83.8923 125.409 83.4384C125.567 82.9905 125.746 82.5474 125.945 82.1092C126.186 81.6847 126.447 81.2689 126.728 80.8619C127.048 80.4764 127.387 80.1033 127.744 79.7429C128.138 79.4111 128.547 79.0955 128.974 78.796C129.431 78.532 129.902 78.2873 130.387 78.0619C130.896 77.8777 131.415 77.7156 131.945 77.5753C132.493 77.4812 133.046 77.411 133.606 77.3647C134.176 77.368 134.747 77.3965 135.321 77.4504C135.894 77.5556 136.465 77.6867 137.034 77.8436C137.594 78.0521 138.147 78.2862 138.692 78.5459C139.219 78.8557 139.735 79.19 140.239 79.5487C140.714 79.9544 141.174 80.3825 141.618 80.833C142.025 81.3257 142.412 81.838 142.779 82.3699C143.102 82.9375 143.401 83.5212 143.676 84.1209C143.9 84.7485 144.097 85.388 144.268 86.0392C144.383 86.7093 144.468 87.3863 144.525 88.0704C144.521 88.7634 144.488 89.4582 144.424 90.1547C144.298 90.8495 144.142 91.5406 143.955 92.2281C143.706 92.9027 143.428 93.5682 143.119 94.2245C142.75 94.857 142.353 95.4749 141.927 96.0782C141.446 96.647 140.938 97.196 140.405 97.7253C139.821 98.2102 139.216 98.6706 138.587 99.1066C137.917 99.4894 137.228 99.8436 136.521 100.169C135.781 100.434 135.028 100.667 134.262 100.869C133.474 101.003 132.678 101.104 131.874 101.17C131.061 101.166 130.245 101.127 129.428 101.051C128.613 100.904 127.803 100.72 126.997 100.501C126.207 100.21 125.427 99.884 124.658 99.5227C123.917 99.0926 123.194 98.6292 122.487 98.1326C121.82 97.5722 121.176 96.9815 120.556 96.3607C119.986 95.6833 119.445 94.9797 118.932 94.25C118.481 93.4729 118.062 92.6747 117.676 91.8554C117.36 90.9995 117.081 90.1285 116.838 89.2421C116.672 88.3317 116.544 87.4125 116.456 86.4845C116.448 85.5459 116.482 84.6056 116.555 83.6634C116.712 82.7248 116.909 81.7916 117.147 80.8638C117.467 79.9541 117.827 79.0571 118.227 78.1727C118.706 77.3207 119.222 76.4884 119.776 75.6759C120.403 74.9095 121.064 74.1694 121.76 73.4557C122.52 72.8008 123.31 72.1782 124.129 71.5879C125.003 71.0677 125.9 70.5849 126.822 70.1395C127.785 69.7735 128.766 69.4491 129.764 69.1662C130.789 68.9697 131.825 68.8178 132.872 68.7104C133.93 68.694 134.991 68.7237 136.055 68.7996C137.115 68.9684 138.169 69.1836 139.217 69.4452C140.246 69.7988 141.261 70.1977 142.262 70.6417C143.228 71.174 144.172 71.7489 145.094 72.3664C145.965 73.0656 146.807 73.8034 147.62 74.5798C148.368 75.4286 149.08 76.3108 149.756 77.2263" stroke="#FE592F" stroke-width="2"/>
<defs>
<filter id="filter0_f_710_385" x="69.2998" y="-3.8147e-06" width="143.103" height="161.045" filterUnits="userSpaceOnUse" color-interpolation-filters="sRGB">
<feFlood flood-opacity="0" result="BackgroundImageFix"/>
<feBlend mode="normal" in="SourceGraphic" in2="BackgroundImageFix" result="shape"/>
<feGaussianBlur stdDeviation="14.3478" result="effect1_foregroundBlur_710_385"/>
</filter>
<filter id="filter1_f_710_385" x="-3.8147e-06" y="-3.8147e-06" width="148.574" height="161.045" filterUnits="userSpaceOnUse" color-interpolation-filters="sRGB">
<feFlood flood-opacity="0" result="BackgroundImageFix"/>
<feBlend mode="normal" in="SourceGraphic" in2="BackgroundImageFix" result="shape"/>
<feGaussianBlur stdDeviation="14.3478" result="effect1_foregroundBlur_710_385"/>
</filter>
</defs>
</svg>
