<svg width="168" height="293" viewBox="0 0 168 293" fill="none" xmlns="http://www.w3.org/2000/svg">
<path d="M59.5537 152.468V223.47H71.4639V234.415H83.374V269.181H71.4639V281.091H23.8213V269.181H11.9111V234.415H23.8213V223.47H35.7314V152.468H59.5537Z" fill="#FABA59"/>
<path d="M35.7314 223.468H23.8213V234.412H11.9111V269.179H23.8213V281.089H71.4639V269.179H83.374V234.412H71.4639V223.468H59.5537V94.7051H71.4639V210.592H83.374V222.502H95.2852V281.089H83.374V293L71.4639 292.999H23.8213V293H11.9111V281.089H0V222.502H11.9111V210.592H23.8213V94.7051H35.7314V223.468ZM58.9092 82.7949V94.7051H35.7314V82.7939L58.9092 82.7949Z" fill="#D9D9D9"/>
</svg>
