<svg width="168" height="293" viewBox="0 0 168 293" fill="none" xmlns="http://www.w3.org/2000/svg">
<path d="M59.5537 213.243V223.469H71.4639V234.413H83.374V269.18H71.4639V281.09H23.8213V269.18H11.9111V234.413H23.8213V223.469H35.7314V213.243H59.5537Z" fill="#C2E9F9"/>
<path d="M35.7314 223.468H23.8213V234.412H11.9111V269.179H23.8213V281.089H71.4639V269.179H83.374V234.412H71.4639V223.468H59.5537V94.7051H71.4639V210.592H83.374V222.502H95.2852V281.089H83.374V293L71.4639 292.999H23.8213V293H11.9111V281.089H0V222.502H11.9111V210.592H23.8213V94.7051H35.7314V223.468ZM58.9092 82.7949V94.7051H35.7314V82.7939L58.9092 82.7949Z" fill="#D9D9D9"/>
<rect x="11.9111" y="234.245" width="11.3743" height="34.9331" fill="#97CAE4"/>
<rect x="23.2854" y="269.178" width="48.3687" height="11.9121" fill="#97CAE4"/>
<rect x="23.2854" y="257.266" width="11.708" height="11.9121" fill="#97CAE4"/>
<path d="M93.511 199.576H82.8733V188.939H93.511V199.576ZM93.511 153.432H71.0588V142.795H82.8733V129.802H71.0588V119.165H93.511V153.432ZM140.038 153.432H129.401V142.795H140.038V153.432ZM140.038 129.802H129.401V119.165H140.038V129.802ZM69.8811 83.2119H59.2434V72.5742H69.8811V83.2119ZM93.511 83.2119H82.8733V72.5742H93.511V83.2119Z" fill="#C2E8F9"/>
<path d="M129.402 210.214H118.765V199.576H129.402V210.214ZM150.676 210.214H140.039V199.576H150.676V210.214ZM140.039 199.576H129.402V188.939H140.039V199.576ZM82.2854 189.385H70.2483V153.432H82.2854V189.385ZM129.402 188.939H118.765V178.302H129.402V188.939ZM150.676 188.939H140.039V178.302H150.676V188.939ZM116.973 164.671H105.157V175.909H93.511V153.432H116.973V164.671ZM129.402 142.795H93.512V129.802H129.402V142.795ZM82.2854 119.165H70.2483V83.2119H82.2854V119.165ZM105.158 107.874H116.974V119.165H93.512V107.874H93.5129V96.582H105.158V107.874ZM129.402 93.8486H118.765V83.2109H129.402V93.8486ZM150.676 93.8486H140.039V83.2109H150.676V93.8486ZM140.039 83.2109H129.402V72.5742H140.039V83.2109ZM129.402 72.5742H118.765V61.9365H129.402V72.5742ZM150.676 72.5742H140.039V61.9365H150.676V72.5742Z" fill="#9ECEE8"/>
</svg>
