<svg width="168" height="293" viewBox="0 0 168 293" fill="none" xmlns="http://www.w3.org/2000/svg">
<path d="M70.9268 71.0576H82.8096V82.2832H12.4756V71.0576H24.3555V59.3213H12.4756V46.6826H47.6533V59.3213H70.9268V71.0576Z" fill="#FFCF35"/>
<path d="M59.4141 11.957H70.793V23.5322H71.2344V35.1074H59.2178V59.3213H47.6533V46.6826H24.002V35.1074H36.0195V23.5322H59.2178V11.957H47.8398V0.381836H59.4141V11.957Z" fill="#FEE36C"/>
<path d="M82.8096 58.543H71.2344V46.9688H82.8096V58.543Z" fill="#FEE36C"/>
<path d="M12.4756 46.6826H0.900391V35.1074H12.4756V46.6826Z" fill="#FEE36C"/>
<path d="M36.4053 58.4194H48.082V70.1577H72.2236V82.2827H82.8096V117.882H71.4639V94.7036H59.7178V94.5054H58.9092V82.7935L35.7314 82.7925V94.7036H35.8281V117.882H35.7314V94.7036H23.8213V117.882H12.4756V82.2827H35.8281V58.8081H24.1523V46.6812H36.4053V58.4194Z" fill="#FB170F"/>
<path d="M59.5537 117.883V223.469H71.4639V234.413H83.374V269.18H71.4639V281.09H23.8213V269.18H11.9111V234.413H23.8213V223.469H35.7314V117.883H59.5537Z" fill="#FA6959"/>
<path d="M35.7314 223.468H23.8213V234.412H11.9111V269.179H23.8213V281.089H71.4639V269.179H83.374V234.412H71.4639V223.468H59.5537V94.7051H71.4639V210.592H83.374V222.502H95.2852V281.089H83.374V293H11.9111V281.089H0V222.502H11.9111V210.592H23.8213V94.7051H35.7314V223.468Z" fill="#D9D9D9"/>
<path d="M58.9092 82.7949V94.7051H35.7314V82.7939L58.9092 82.7949Z" fill="#D9D9D9"/>
</svg>
